<svg width="86" height="86" viewBox="0 0 86 86" fill="none" xmlns="http://www.w3.org/2000/svg">
<path d="M60.4085 7.98581H24.9602C15.1715 7.98581 7.23613 15.924 7.23613 25.7163V61.1773C7.23613 70.9696 15.1715 78.9078 24.9602 78.9078H60.4085C70.1972 78.9078 78.1326 70.9696 78.1326 61.1773V25.7163C78.1326 15.924 70.1972 7.98581 60.4085 7.98581Z" stroke="#CD3A25" stroke-width="2" stroke-linecap="round" stroke-linejoin="round"/>
<path d="M56.8637 41.2128C57.3011 44.164 56.7972 47.1781 55.4236 49.8263C54.05 52.4745 51.8766 54.622 49.2126 55.9634C46.5486 57.3047 43.5296 57.7716 40.5851 57.2976C37.6405 56.8237 34.9204 55.4329 32.8115 53.3233C30.7026 51.2136 29.3123 48.4925 28.8385 45.5469C28.3647 42.6013 28.8314 39.5812 30.1723 36.9162C31.5132 34.2513 33.6599 32.0771 36.3072 30.703C38.9544 29.3289 41.9674 28.8248 44.9176 29.2624C47.9269 29.7088 50.7129 31.1116 52.864 33.2635C55.0152 35.4154 56.4174 38.2024 56.8637 41.2128Z" stroke="#CD3A25" stroke-width="2" stroke-linecap="round" stroke-linejoin="round"/>
<path d="M62.1809 23.9433H62.2152" stroke="#CD3A25" stroke-width="2" stroke-linecap="round" stroke-linejoin="round"/>
</svg>
